<svg xmlns="http://www.w3.org/2000/svg" viewBox="0 0 1381.83 536.58"><defs><style>.cls-1{fill:#fff;}</style></defs><g id="Layer_2" data-name="Layer 2"><g id="BG"><path class="cls-1" d="M191.58,536.58A164.24,164.24,0,0,0,355.82,372.34H199.54a8,8,0,0,0-8,8Z"/><circle class="cls-1" cx="82.12" cy="454.46" r="82.12"/><path class="cls-1" d="M192.07,180.38H62.17a7.28,7.28,0,0,0-7.28,7.28V337.89a7.28,7.28,0,0,0,7.28,7.28H355.82A164.8,164.8,0,0,0,192.07,180.38Z"/><path class="cls-1" d="M.19,0H348.06a8,8,0,0,1,8,8V117.2a8,8,0,0,1-8,8H125.35A125.16,125.16,0,0,1,.19,0V0A0,0,0,0,1,.19,0Z"/><path class="cls-1" d="M540,87.34q6.78-5.76,21.25-5.76,26.12,0,27.84,19.62H577.43a9.94,9.94,0,0,0-4.78-7.64q-4-2.36-11.4-2.36-8.67,0-12.62,3.18t-4,10.07q0,6.94,4,10.16t12.62,3.22q7.32,0,11.37-2.42a10.13,10.13,0,0,0,4.81-7.71h11.66q-1.73,19.76-27.84,19.75-14.47,0-21.25-5.8t-6.79-17.2Q533.21,93.11,540,87.34Z"/><path class="cls-1" d="M706.47,107.86a14.79,14.79,0,0,1-7.1,5.7l8.22,13.25H694.08l-7.2-11.91H668.41v11.91H656.94V82.22h35a19,19,0,0,1,8.92,2,14.68,14.68,0,0,1,6,5.74,16.91,16.91,0,0,1,2.13,8.6A16.46,16.46,0,0,1,706.47,107.86Zm-38.06-2.58h20.38a22.77,22.77,0,0,0,4.27-.35,5.73,5.73,0,0,0,3.15-1.82,6.38,6.38,0,0,0,1.38-4.52A6.53,6.53,0,0,0,696.21,94a5.78,5.78,0,0,0-3.15-1.81,22,22,0,0,0-4.27-.35H668.41Z"/><path class="cls-1" d="M788,91.33v9h35.68v8.29H788v9h35.68v9.11H776.52V82.22h47.15v9.11Z"/><path class="cls-1" d="M935,117.32h-26.7l-4.77,9.49H890.88l23-44.59h15.48l23.07,44.59H939.75Zm-4.27-8.54-9.05-18.09-9.11,18.09Z"/><path class="cls-1" d="M1061.05,91.84h-21.66v35h-11.47v-35h-21.66V82.22h54.79Z"/><path class="cls-1" d="M1140,126.81h-11.47V82.22H1140Z"/><path class="cls-1" d="M1268.24,82.22l-22.94,44.59h-15.67l-22.94-44.59h12.87l17.9,36.12,17.91-36.12Z"/><path class="cls-1" d="M1346.15,91.33v9h35.68v8.29h-35.68v9h35.68v9.11h-47.15V82.22h47.15v9.11Z"/><path class="cls-1" d="M544.68,270.73a5.09,5.09,0,0,0,1.59,3.95c1.07,1,2.92,1.71,5.58,2.2a65.31,65.31,0,0,0,11.18.73,71.45,71.45,0,0,0,9.43-.47,11.12,11.12,0,0,0,4.81-1.53,3.35,3.35,0,0,0,1.43-2.84,3.28,3.28,0,0,0-1.24-2.83,10.75,10.75,0,0,0-4.68-1.37c-2.3-.3-6-.58-11.09-.83a87.31,87.31,0,0,1-15.89-1.85q-5.84-1.39-8.54-4.27a10.92,10.92,0,0,1-2.71-7.83q0-7.08,6.72-10t20-2.93q13.11,0,20.06,3.64a12.18,12.18,0,0,1,7,11.59H576.79a4.52,4.52,0,0,0-1.69-3.76,11.09,11.09,0,0,0-5.29-1.85A74.21,74.21,0,0,0,560,250a67.22,67.22,0,0,0-8.66.41,8.78,8.78,0,0,0-4.14,1.34,3.17,3.17,0,0,0-1.15,2.64,3,3,0,0,0,1.21,2.64,10.85,10.85,0,0,0,4.4,1.34q3.18.48,10.06.86A155.5,155.5,0,0,1,578,260.73a19.15,19.15,0,0,1,8.92,3.6q3.29,2.64,3.28,8.06,0,5.73-3.38,8.86a18.88,18.88,0,0,1-9.36,4.3,80.53,80.53,0,0,1-15,1.17,78.55,78.55,0,0,1-16.09-1.36q-6.33-1.38-9.71-4.88t-3.38-9.75Z"/><path class="cls-1" d="M708.67,251.11H687v35H675.54v-35H653.88v-9.62h54.79Z"/><path class="cls-1" d="M825.83,281.09q-6.75,5.64-21.28,5.63t-21.31-5.6q-6.72-5.61-6.72-17.39V241.49H788v22.24a17.46,17.46,0,0,0,1.18,6.65,9.7,9.7,0,0,0,4.81,4.81q3.63,1.92,10.57,1.91t10.58-1.94a9.94,9.94,0,0,0,4.81-4.81,17.23,17.23,0,0,0,1.18-6.62V241.49h11.47v22.24Q832.59,275.45,825.83,281.09Z"/><path class="cls-1" d="M944.33,244a18.75,18.75,0,0,1,7.84,7.51,27.28,27.28,0,0,1,0,24.6,18.75,18.75,0,0,1-7.84,7.51,23.71,23.71,0,0,1-10.89,2.49H901.07v-44.6h32.37A23.71,23.71,0,0,1,944.33,244ZM937,275.48a8.74,8.74,0,0,0,4.84-3.73c1.17-1.82,1.75-4.48,1.75-8s-.58-6.14-1.75-8A8.74,8.74,0,0,0,937,252.1a26.54,26.54,0,0,0-7.93-1H912.54v25.36h16.57A26.54,26.54,0,0,0,937,275.48Z"/><path class="cls-1" d="M1034.42,286.09H1023v-44.6h11.47Z"/><path class="cls-1" d="M1108.74,280.93q-6.79-5.81-6.79-17.2t6.79-17.11q6.78-5.76,21.25-5.77t21.21,5.8q6.83,5.81,6.82,17.08t-6.82,17.17q-6.81,5.82-21.21,5.82T1108.74,280.93Zm33.92-7q3.88-3.22,3.89-10.16t-3.85-10.07q-3.85-3.18-12.71-3.19t-12.71,3.16q-3.85,3.15-3.86,10.1t3.86,10.16q3.84,3.21,12.71,3.21T1142.66,273.89Z"/><path class="cls-1" d="M579,419.21q4.83,3.92,4.84,11.05,0,8-6.37,11.88t-18,3.86q-12.48,0-19.37-3.47t-6.88-12.65h11.47a5.13,5.13,0,0,0,3.66,5.07q3.67,1.43,11.44,1.43,6.81,0,9.68-1.88a6.15,6.15,0,0,0,2.87-5.51,6.27,6.27,0,0,0-2.42-5.29q-2.42-1.84-8.6-1.85a32.14,32.14,0,0,0-7.17.86,67.26,67.26,0,0,0-9.27,3.09L535.44,424l5.74-23.19h39.43v9.11h-30.9l-2.86,9.49a52.39,52.39,0,0,1,9.27-3.15,42.46,42.46,0,0,1,9.33-.93Q574.12,415.29,579,419.21Z"/><path class="cls-1" d="M657.51,440.14Q651,434.28,651,423t6.5-17q6.5-5.83,19.62-5.83T696.72,406q6.54,5.86,6.54,17t-6.54,17.11Q690.2,446,677.13,446T657.51,440.14Zm30.65-7.23q3.63-3.48,3.63-9.91t-3.63-9.81q-3.64-3.44-11-3.44t-11,3.41q-3.63,3.4-3.63,9.84t3.63,9.91q3.63,3.46,11,3.47T688.16,432.91Z"/><path class="cls-1" d="M817.33,421.79a19.09,19.09,0,0,1-7.11,4.4,105.71,105.71,0,0,1-10.7,3c-3,.72-5.34,1.33-7,1.82a18.44,18.44,0,0,0-4.36,1.88,5.06,5.06,0,0,0-2.42,2.86h33.89v9.62H769.7v-5.8a10.58,10.58,0,0,1,3.44-8.09,23.64,23.64,0,0,1,8.22-4.87c3.19-1.13,7.29-2.3,12.3-3.54,3.52-.84,6.27-1.59,8.25-2.23a18.17,18.17,0,0,0,4.94-2.35,4.14,4.14,0,0,0,2-3.44,4.42,4.42,0,0,0-1-3.06,6.58,6.58,0,0,0-3.66-1.69,40.12,40.12,0,0,0-7.55-.54,38.93,38.93,0,0,0-8.35.7,8,8,0,0,0-4.55,2.52,8.17,8.17,0,0,0-1.5,5.32H770.72q0-7.14,3.12-11.12a16,16,0,0,1,8.61-5.51,50.91,50.91,0,0,1,13.5-1.53,60.27,60.27,0,0,1,13.45,1.24,15.45,15.45,0,0,1,8.09,4.3c1.86,2,2.8,4.87,2.8,8.47A10.29,10.29,0,0,1,817.33,421.79Z"/></g></g></svg>