<svg xmlns="http://www.w3.org/2000/svg" viewBox="0 0 55.88 84.22"><defs><style>.cls-1{fill:#fff;}</style></defs><g id="Layer_2" data-name="Layer 2"><g id="LOGO"><path class="cls-1" d="M30.07,84.22A25.78,25.78,0,0,0,55.85,58.44H31.32a1.25,1.25,0,0,0-1.25,1.25Z"/><circle class="cls-1" cx="12.89" cy="71.33" r="12.89"/><path class="cls-1" d="M30.15,28.31H9.76a1.14,1.14,0,0,0-1.14,1.14V53a1.14,1.14,0,0,0,1.14,1.14H55.85A25.87,25.87,0,0,0,30.15,28.31Z"/><path class="cls-1" d="M0,0h54.6a1.25,1.25,0,0,1,1.25,1.25V18.4a1.25,1.25,0,0,1-1.25,1.25h-35A19.65,19.65,0,0,1,0,0V0A0,0,0,0,1,0,0Z"/></g></g></svg>